<?xml version="1.0" encoding="utf-8"?>
<!-- Generator: Adobe Illustrator 23.0.1, SVG Export Plug-In . SVG Version: 6.00 Build 0)  -->
<svg version="1.1" xmlns="http://www.w3.org/2000/svg" xmlns:xlink="http://www.w3.org/1999/xlink" x="0px" y="0px"
	 viewBox="0 0 750 500" style="enable-background:new 0 0 750 500;" xml:space="preserve">
<style type="text/css">
	.st0{fill:#EAEAEA;}
	.st1{opacity:0.1;clip-path:url(#SVGID_2_);}
	.st2{fill:url(#SVGID_3_);}
	.st3{opacity:0.2;clip-path:url(#SVGID_2_);}
	.st4{fill:url(#SVGID_4_);}
	.st5{clip-path:url(#SVGID_2_);}
	.st6{fill:url(#SVGID_5_);}
	.st7{opacity:0.08;clip-path:url(#SVGID_2_);}
	.st8{fill:#FFFFFF;}
</style>
<g id="BACKGROUND">
	<rect x="125" y="-125" transform="matrix(-1.836970e-16 1 -1 -1.836970e-16 625 -125)" class="st0" width="500" height="750"/>
</g>
<g id="OBJECTS">
	<g>
		<defs>
			<rect id="SVGID_1_" x="42.53" y="50.69" width="612.5" height="366.72"/>
		</defs>
		<clipPath id="SVGID_2_">
			<use xlink:href="#SVGID_1_"  style="overflow:visible;"/>
		</clipPath>
		<g class="st1">
			
				<linearGradient id="SVGID_3_" gradientUnits="userSpaceOnUse" x1="1269.8954" y1="200.1934" x2="1796.9023" y2="-326.8136" gradientTransform="matrix(-0.9263 0.3769 0.3769 0.9263 1812.2697 -348.2451)">
				<stop  offset="0" style="stop-color:#181742"/>
				<stop  offset="0.1027" style="stop-color:#291254"/>
				<stop  offset="0.2136" style="stop-color:#330E60"/>
				<stop  offset="0.3256" style="stop-color:#370D64"/>
				<stop  offset="0.4285" style="stop-color:#3A0E64"/>
				<stop  offset="0.5138" style="stop-color:#451163"/>
				<stop  offset="0.5927" style="stop-color:#561662"/>
				<stop  offset="0.668" style="stop-color:#6E1D61"/>
				<stop  offset="0.7406" style="stop-color:#8E265F"/>
				<stop  offset="0.8111" style="stop-color:#B4315D"/>
				<stop  offset="0.8789" style="stop-color:#E13D5B"/>
				<stop  offset="0.8912" style="stop-color:#EA405A"/>
			</linearGradient>
			<path class="st2" d="M-40.14,179.89l722.65-203.1c0,0,82.27,202.19,82.29,202.23c1.44,3.54-7.89,20.88-9.09,25.42
				c-10.04,37.86-30.86,80.72-64.64,104.64c-33.58,23.78-76.35,28.3-115.93,25.88c-61.68-3.77-114.26-28.55-173.95-38.8
				c-98.33-16.89-185.33,47.76-278.22,69.04c-24.27,5.56-51.3,8.6-74.02-1.89c-19.4-8.95-22.1-36.66-29.18-54.08
				C12.46,291.29-32.83,197.85-40.14,179.89z"/>
		</g>
		<g class="st3">
			
				<linearGradient id="SVGID_4_" gradientUnits="userSpaceOnUse" x1="62.2749" y1="464.1191" x2="543.813" y2="-17.419" gradientTransform="matrix(0.992 0.1264 -0.1264 0.992 39.8933 -119.9398)">
				<stop  offset="0.1088" style="stop-color:#EA405A"/>
				<stop  offset="0.1211" style="stop-color:#E13D5B"/>
				<stop  offset="0.1889" style="stop-color:#B4315D"/>
				<stop  offset="0.2594" style="stop-color:#8E265F"/>
				<stop  offset="0.332" style="stop-color:#6E1D61"/>
				<stop  offset="0.4073" style="stop-color:#561662"/>
				<stop  offset="0.4862" style="stop-color:#451163"/>
				<stop  offset="0.5715" style="stop-color:#3A0E64"/>
				<stop  offset="0.6744" style="stop-color:#370D64"/>
				<stop  offset="0.7864" style="stop-color:#330E60"/>
				<stop  offset="0.8973" style="stop-color:#291254"/>
				<stop  offset="1" style="stop-color:#181742"/>
			</linearGradient>
			<path class="st4" d="M717.14,106.69L-16.11,13.26c0,0-27.59,216.54-27.6,216.58c-0.48,3.79,12.98,18.16,15.32,22.24
				c19.43,34.01,50.55,70.09,89.34,84.53c38.56,14.36,81.06,7.74,118.69-4.75c58.64-19.48,103.09-56.93,158.15-82.17
				c90.69-41.57,191.37-1.43,286.62-4.72c24.89-0.86,51.79-4.87,71.06-20.83c16.45-13.63,11.94-41.11,14.32-59.76
				C712.24,145.15,714.69,125.92,717.14,106.69z"/>
		</g>
		<g class="st5">
			<linearGradient id="SVGID_5_" gradientUnits="userSpaceOnUse" x1="76.4732" y1="340.2084" x2="525.5868" y2="-108.9052">
				<stop  offset="0" style="stop-color:#181742"/>
				<stop  offset="0.1027" style="stop-color:#291254"/>
				<stop  offset="0.2136" style="stop-color:#330E60"/>
				<stop  offset="0.3256" style="stop-color:#370D64"/>
				<stop  offset="0.4285" style="stop-color:#3A0E64"/>
				<stop  offset="0.5138" style="stop-color:#451163"/>
				<stop  offset="0.5927" style="stop-color:#561662"/>
				<stop  offset="0.668" style="stop-color:#6E1D61"/>
				<stop  offset="0.7406" style="stop-color:#8E265F"/>
				<stop  offset="0.8111" style="stop-color:#B4315D"/>
				<stop  offset="0.8789" style="stop-color:#E13D5B"/>
				<stop  offset="0.8912" style="stop-color:#EA405A"/>
			</linearGradient>
			<path class="st6" d="M671.67,37.18H-17.72c0,0,0,203.59,0,203.62c0,3.56,14.15,15.27,16.79,18.77
				c21.98,29.17,55.03,58.89,92.62,67.67c37.37,8.74,75.9-2.39,109.25-18.39c51.96-24.94,88.67-64.82,136.63-94.66
				c79-49.15,176.88-23.88,264.62-38.15c22.92-3.73,47.34-10.61,63.29-27.65c13.61-14.55,6.2-39.44,6.2-56.98
				C671.67,73.33,671.67,55.25,671.67,37.18z"/>
		</g>
		<g class="st7">
			<path class="st8" d="M-53.95,23.02l691.41-292.27c0,0,107.02,190.25,107.04,190.29c1.87,3.33-5.2,21.71-5.82,26.37
				c-5.21,38.82-20.47,83.96-50.98,111.93C657.36,87.14,615.5,97,575.93,99.58C514.27,103.59,459,85.61,398.49,82.94
				c-99.67-4.4-177.86,70.67-267.34,103.45c-23.38,8.57-49.82,14.97-73.68,7.43c-20.37-6.44-26.53-33.6-35.74-49.99
				C12.22,126.94-44.44,39.92-53.95,23.02z"/>
		</g>
	</g>
</g>
<g id="DESIGNED_BY_FREEPIK">
</g>
</svg>
